<?xml version="1.0" encoding="utf-8"?>
<!-- Generator: Adobe Illustrator 19.0.0, SVG Export Plug-In . SVG Version: 6.00 Build 0)  -->
<svg version="1.1" id="图层_1" xmlns="http://www.w3.org/2000/svg" xmlns:xlink="http://www.w3.org/1999/xlink" x="0px" y="0px"
	 viewBox="0 0 32 32" style="enable-background:new 0 255 255 255;" xml:space="preserve">
<style type="text/css">
	.app_path{fill-rule:evenodd;clip-rule:evenodd;fill:#3dca99;}
</style>
<g id="XMLID_3_">
	<g id="XMLID_1_">
		<path class="app_path" id="XMLID_23_" d="M26,2.2v27.7H6.8V2.2H26 M26.1,0H6.7c-1.1,0-2,0.9-2,2V30c0,1.1,0.9,2,2,2h19.4c1.1,0,2-0.9,2-2V2.1
			C28.1,0.9,27.2,0,26.1,0L26.1,0z"/>
	</g>
	<path class="app_path" id="XMLID_8_" d="M6.7,23.5V32H26v-8.5H6.7z M16.5,29.9c-1.2,0-2.1-1-2.1-2.1c0-1.2,1-2.1,2.1-2.1c1.2,0,2.1,1,2.1,2.1
		C18.6,28.9,17.6,29.9,16.5,29.9z"/>
</g>
</svg>
